<?xml version="1.0" standalone="no"?>
<!DOCTYPE svg PUBLIC "-//W3C//DTD SVG 20010904//EN"
 "http://www.w3.org/TR/2001/REC-SVG-20010904/DTD/svg10.dtd">
<svg version="1.0" xmlns="http://www.w3.org/2000/svg"
 width="376.000000pt" height="376.000000pt" viewBox="0 0 376.000000 376.000000"
 preserveAspectRatio="xMidYMid meet">

<g transform="translate(0.000000,376.000000) scale(0.100000,-0.100000)"
fill="#6247f0" stroke="none">
<path d="M1686 3729 c-692 -73 -1292 -537 -1542 -1192 -78 -204 -116 -419
-117 -652 0 -185 12 -281 54 -453 216 -878 1042 -1476 1937 -1404 473 39 868
223 1192 559 141 145 228 267 319 443 364 709 241 1563 -307 2131 -407 422
-964 628 -1536 568z m485 -468 c274 -62 507 -190 699 -381 205 -205 339 -458
397 -748 24 -123 24 -395 0 -512 -124 -584 -542 -1002 -1127 -1127 -119 -25
-401 -25 -520 0 -419 89 -756 331 -964 692 -138 240 -205 548 -178 821 35 343
176 641 417 879 210 206 465 335 775 391 108 19 388 11 501 -15z"/>
<path d="M1825 2826 c-250 -113 -581 -272 -587 -280 -8 -11 278 -156 306 -156
6 0 79 31 161 68 83 38 157 71 166 74 9 4 87 -27 174 -68 88 -41 164 -74 171
-74 18 0 314 142 314 150 0 4 -51 31 -112 60 -384 181 -506 238 -523 243 -11
3 -42 -5 -70 -17z"/>
<path d="M950 1882 l0 -539 23 -10 c235 -113 732 -343 739 -343 4 0 8 65 8
144 l0 143 -235 109 -235 109 0 52 0 52 108 -51 c222 -104 342 -158 352 -158
6 0 10 51 10 143 l0 142 -235 109 -235 109 0 48 c0 27 2 49 5 49 3 0 107 -47
231 -105 125 -58 228 -105 231 -105 2 0 2 66 1 147 l-3 146 -370 173 c-203 95
-376 173 -382 173 -10 1 -13 -113 -13 -537z"/>
<path d="M2650 2356 l-135 -63 -7 -183 c-3 -100 -8 -184 -10 -186 -2 -2 -40
59 -83 136 -44 77 -84 140 -90 139 -5 0 -71 -29 -145 -63 l-135 -63 -3 -542
-2 -542 22 7 c13 3 79 33 148 65 l125 59 5 192 5 192 83 -147 c46 -81 87 -147
93 -147 5 0 71 29 147 64 l137 64 3 541 c2 430 0 541 -10 540 -7 0 -74 -29
-148 -63z"/>
</g>
</svg>
